PathFileType	4	(x/y/z)	S02_PSF_T03
DataRate	CameraRate	NumFrames	NumMarkers	Units	OrigDataRate	OrigDataStartFrame	OrigNumFrames
240	240	8	51	mm	240	296	394
Frame#	Time	Sternum			R.Acromium			L.Acromium			Top.Head			R.ASIS			L.ASIS			R.PSIS			L.PSIS			R.Great.Tro			L.Great.Tro			R.Iliac.Crest			L.Iliac.Crest			V.Sacral			R.Thigh.Upper.Post			R.Thigh.Lower.Ant			R.Thigh.Lower.Post			R.Thigh.Upper.Ant			R.Knee.Lat			R.Knee.Med			R.Shank.Upper.Post			R.Shank.Lower.Ant			R.Shank.Lower.Post			R.Shank.Upper.Ant			R.Ankle.Lat			R.Ankle.Med			R.Heel.Upper			R.Heel.Med			R.Heel.Lat			R.Toe.Lat			R.Toe.Med			R.Toe.Tip			L.Thigh.Upper.Post			L.Thigh.Lower.Ant			L.Thigh.Lower.Post			L.Thigh.Upper.Ant			L.Knee.Lat			L.Knee.Med			L.Shank.Upper.Post			L.Shank.Lower.Ant			L.Shank.Lower.Post			L.Shank.Upper.Ant			L.Ankle.Lat			L.Ankle.Med			L.Heel.Upper			L.Heel.Med			L.Heel.Lat			L.Toe.Lat			L.Toe.Med			L.Toe.Tip			Cervical.Spine			Back			
		X1	Y1	Z1	X2	Y2	Z2	X3	Y3	Z3	X4	Y4	Z4	X5	Y5	Z5	X6	Y6	Z6	X7	Y7	Z7	X8	Y8	Z8	X9	Y9	Z9	X10	Y10	Z10	X11	Y11	Z11	X12	Y12	Z12	X13	Y13	Z13	X14	Y14	Z14	X15	Y15	Z15	X16	Y16	Z16	X17	Y17	Z17	X18	Y18	Z18	X19	Y19	Z19	X20	Y20	Z20	X21	Y21	Z21	X22	Y22	Z22	X23	Y23	Z23	X24	Y24	Z24	X25	Y25	Z25	X26	Y26	Z26	X27	Y27	Z27	X28	Y28	Z28	X29	Y29	Z29	X30	Y30	Z30	X31	Y31	Z31	X32	Y32	Z32	X33	Y33	Z33	X34	Y34	Z34	X35	Y35	Z35	X36	Y36	Z36	X37	Y37	Z37	X38	Y38	Z38	X39	Y39	Z39	X40	Y40	Z40	X41	Y41	Z41	X42	Y42	Z42	X43	Y43	Z43	X44	Y44	Z44	X45	Y45	Z45	X46	Y46	Z46	X47	Y47	Z47	X48	Y48	Z48	X49	Y49	Z49	X50	Y50	Z50	X51	Y51	Z51	

296	1.2292	209.82	1086.5	300.95	98.528	1324.6	433.89	100.76	1319.4	140.3	159.62	1606	259.26	169.85	915.8	413.39	201.18	915.83	204.77	-34.918	948.73	338.21	-32.136	958.44	264.78	89.485	775.9	499.19	106.42	814.87	104.94	60.196	953.96	464.32	82.54	963.67	127.62	-56.48	905.51	289.47	100.89	589.16	496.95	166.03	511.44	484.48	93.927	499.44	484.15	168.93	600.87	493.03	108.33	424.65	481.62	136.91	400.58	339.56	-81.244	353.14	439.46	-103.14	245.33	426.83	-136.09	305.05	425.91	-50.528	287.82	448.26	-196.79	232.57	410.34	-162.28	230.67	330.52	-217.53	285.26	351.24	-236.39	266.69	315.57	-254.48	272.23	377.98	-224.21	113.32	418.52	-192.51	88.965	315.43	-164.33	48.715	376.35	129.01	589.45	137.53	223.93	536.02	155.01	151.58	505.34	165.55	192.62	621.98	127.43	228.23	453.99	170.89	213.7	458.77	307.34	153.25	278.52	175.39	223.82	195.17	200.31	152.3	206.57	194.82	217.88	269.06	180.36	176.18	97.877	214.49	188.24	95.783	296.76	118.18	65.587	249.83	126.26	40.393	284.41	123.85	37.252	222.38	290.75	35.585	194.08	311.38	45.755	303.88	371.33	62.322	257.61	23.164	1384.7	286	-51.15	1131.6	301.28
297	1.2333	215.02	1087.4	301.11	103.48	1325.8	433.82	106.45	1320.4	140.11	165.17	1607.1	259.02	174.99	916.92	413.28	206.22	916.56	204.61	-29.759	949.93	337.82	-27.069	959.69	264.38	94.785	777.28	499.05	110.65	815.66	104.73	65.199	955	464.02	87.778	964.66	127.33	-51.405	906.73	289.11	109.2	590.78	497.45	175.29	513.78	485.38	103.33	500.96	484.81	177.09	603.28	493.71	118.84	426.5	482.51	147.49	402.56	340.3	-70.156	354.24	439.53	-91.538	246.33	426.94	-124.76	305.9	425.83	-39.193	289.06	448.48	-185.06	233.37	409.99	-150.36	231.42	330.38	-206.39	285.33	350.46	-224.87	266.24	314.91	-243.22	272.02	377.2	-210.89	114.07	419.05	-178.59	89.293	316.24	-150.1	49.833	377.58	131.51	590.12	137.41	226.02	535.89	154.76	153.43	505.83	165.4	195.4	622.11	127.21	229.57	453.86	170.65	215.22	458.73	307.19	153.72	278.7	175.49	224.06	195.08	200.13	152.57	206.78	194.92	218.34	268.99	180.18	176.24	97.931	214.54	188.31	95.848	296.78	118.17	65.645	249.84	126.28	40.433	284.41	123.85	37.307	222.39	290.75	35.592	194.06	311.4	45.747	303.88	371.35	62.285	257.59	28.574	1385.8	285.61	-45.853	1132.7	300.55
298	1.2375	220.18	1088.4	301.28	108.43	1327	433.76	112.1	1321.3	139.94	170.71	1608.2	258.82	180.14	918.06	413.18	211.25	917.27	204.44	-24.594	951.18	337.44	-22.012	960.98	263.99	100.04	778.7	498.9	114.83	816.43	104.54	70.209	956.1	463.73	92.974	965.63	127.04	-46.347	908	288.77	117.51	592.47	497.93	184.55	516.2	486.21	112.74	502.56	485.45	185.26	605.75	494.33	129.33	428.4	483.33	158	404.63	340.98	-59.087	355.19	439.57	-79.816	247.17	427.02	-113.38	306.54	425.73	-27.79	290.21	448.66	-173.21	233.91	409.64	-138.36	231.97	330.22	-195.29	285.05	349.69	-213.35	265.41	314.26	-231.93	271.39	376.44	-197.16	114.54	419.6	-164.28	89.425	317.06	-135.35	50.898	378.77	133.97	590.8	137.33	228.06	535.77	154.54	155.22	506.32	165.29	198.12	622.25	127.02	230.82	453.74	170.42	216.77	458.72	307.07	154.15	278.9	175.59	224.28	195.02	199.95	152.82	207	195.02	218.76	268.95	180.02	176.29	97.986	214.6	188.38	95.916	296.79	118.17	65.708	249.85	126.29	40.477	284.42	123.85	37.368	222.4	290.75	35.597	194.05	311.41	45.74	303.87	371.37	62.248	257.57	33.968	1387	285.23	-40.583	1133.9	299.82
299	1.2417	225.31	1089.3	301.45	113.36	1328.2	433.71	117.73	1322.3	139.78	176.24	1609.3	258.64	185.28	919.23	413.06	216.25	917.98	204.27	-19.423	952.49	337.07	-16.963	962.29	263.59	105.26	780.14	498.74	118.95	817.18	104.38	75.229	957.25	463.44	98.125	966.59	126.75	-41.305	909.31	288.45	125.84	594.21	498.39	193.8	518.68	486.97	122.15	504.23	486.07	193.42	608.27	494.9	139.79	430.35	484.09	168.46	406.8	341.62	-48.035	356	439.58	-67.975	247.85	427.06	-101.95	306.97	425.62	-16.321	291.25	448.78	-161.23	234.17	409.28	-126.28	232.32	330.03	-184.19	284.44	348.92	-201.82	264.21	313.64	-220.59	270.36	375.71	-183.06	114.73	420.16	-149.62	89.363	317.87	-120.12	51.891	379.93	136.39	591.49	137.28	230.04	535.66	154.35	156.97	506.84	165.2	200.79	622.38	126.85	232	453.64	170.19	218.37	458.73	306.98	154.55	279.11	175.68	224.48	194.98	199.78	153.05	207.23	195.13	219.16	268.92	179.86	176.35	98.04	214.66	188.44	95.986	296.81	118.16	65.776	249.87	126.31	40.525	284.43	123.86	37.435	222.42	290.74	35.6	194.03	311.43	45.733	303.86	371.39	62.21	257.54	39.344	1388.1	284.86	-35.338	1135.1	299.1
300	1.2458	230.41	1090.3	301.63	118.29	1329.4	433.66	123.33	1323.2	139.64	181.76	1610.4	258.49	190.42	920.42	412.92	221.23	918.69	204.08	-14.247	953.83	336.7	-11.921	963.62	263.21	110.47	781.6	498.56	123.03	817.91	104.24	80.265	958.45	463.14	103.23	967.52	126.46	-36.276	910.67	288.16	134.17	596	498.84	203.03	521.23	487.66	131.54	505.96	486.67	201.58	610.84	495.41	150.21	432.34	484.77	178.88	409.05	342.22	-36.999	356.66	439.58	-56.018	248.36	427.08	-90.476	307.19	425.5	-4.7884	292.18	448.86	-149.14	234.16	408.92	-114.12	232.47	329.83	-173.09	283.5	348.17	-190.26	262.65	313.04	-209.21	268.93	375.02	-168.63	114.65	420.73	-134.63	89.113	318.69	-104.48	52.798	381.07	138.77	592.2	137.26	231.96	535.55	154.17	158.68	507.37	165.15	203.41	622.52	126.7	233.12	453.55	169.98	219.99	458.75	306.91	154.93	279.32	175.78	224.67	194.96	199.63	153.27	207.46	195.24	219.53	268.92	179.71	176.41	98.095	214.73	188.51	96.058	296.83	118.16	65.848	249.88	126.33	40.577	284.44	123.87	37.509	222.43	290.74	35.601	194.02	311.45	45.725	303.85	371.41	62.17	257.52	44.704	1389.3	284.52	-30.117	1136.3	298.39
301	1.25	235.48	1091.2	301.81	123.22	1330.6	433.61	128.9	1324.2	139.51	187.28	1611.5	258.38	195.56	921.63	412.76	226.19	919.4	203.89	-9.0671	955.21	336.35	-6.8845	964.96	262.83	115.66	783.07	498.37	127.05	818.63	104.11	85.321	959.7	462.84	108.28	968.44	126.17	-31.261	912.05	287.9	142.49	597.84	499.27	212.24	523.82	488.27	140.93	507.75	487.24	209.72	613.44	495.87	160.59	434.36	485.38	189.28	411.37	342.76	-25.979	357.15	439.56	-43.95	248.7	427.06	-78.959	307.19	425.37	6.8059	292.98	448.9	-136.93	233.88	408.58	-101.89	232.4	329.62	-161.97	282.24	347.45	-178.64	260.75	312.48	-197.75	267.12	374.38	-153.89	114.32	421.32	-119.35	88.681	319.5	-88.471	53.606	382.18	141.11	592.91	137.26	233.84	535.45	154.02	160.34	507.92	165.13	205.99	622.66	126.58	234.18	453.48	169.78	221.63	458.79	306.87	155.29	279.55	175.87	224.84	194.96	199.49	153.47	207.71	195.35	219.88	268.94	179.58	176.47	98.15	214.8	188.58	96.133	296.84	118.16	65.925	249.9	126.34	40.634	284.45	123.88	37.588	222.44	290.74	35.601	194	311.46	45.717	303.84	371.43	62.13	257.49	50.048	1390.5	284.18	-24.92	1137.5	297.69
302	1.2542	240.52	1092.2	301.98	128.14	1331.8	433.55	134.45	1325.2	139.39	192.79	1612.6	258.29	200.71	922.86	412.57	231.13	920.12	203.67	-3.8839	956.62	336.01	-1.8528	966.31	262.48	120.86	784.57	498.16	131.03	819.34	104	90.399	960.99	462.53	113.28	969.34	125.88	-26.256	913.45	287.68	150.8	599.7	499.68	221.43	526.46	488.81	150.29	509.59	487.79	217.85	616.08	496.27	170.91	436.4	485.92	199.65	413.76	343.25	-14.973	357.49	439.52	-31.773	248.87	427.03	-67.396	306.97	425.24	18.459	293.67	448.91	-124.61	233.33	408.26	-89.564	232.12	329.42	-150.8	280.66	346.76	-166.95	258.52	311.96	-186.22	264.94	373.78	-138.88	113.74	421.91	-103.81	88.074	320.32	-72.135	54.308	383.27	143.42	593.64	137.31	235.66	535.35	153.88	161.96	508.48	165.15	208.52	622.8	126.47	235.2	453.43	169.6	223.27	458.84	306.85	155.63	279.79	175.96	225	194.97	199.36	153.67	207.97	195.45	220.22	268.97	179.47	176.54	98.206	214.88	188.65	96.211	296.87	118.16	66.006	249.91	126.35	40.694	284.45	123.9	37.674	222.46	290.74	35.599	193.98	311.48	45.709	303.83	371.45	62.087	257.47	55.376	1391.6	283.85	-19.744	1138.7	297
303	1.2583	245.54	1093.1	302.15	133.06	1333	433.5	139.97	1326.1	139.29	198.29	1613.7	258.22	205.87	924.12	412.34	236.05	920.84	203.43	1.3006	958.04	335.69	3.1738	967.65	262.14	126.07	786.07	497.94	134.97	820.03	103.9	95.502	962.31	462.22	118.22	970.21	125.6	-21.261	914.86	287.49	159.1	601.6	500.07	230.58	529.14	489.27	159.62	511.47	488.31	225.95	618.74	496.62	181.17	438.46	486.39	210	416.2	343.68	-3.9797	357.65	439.48	-19.49	248.87	426.97	-55.789	306.53	425.11	30.168	294.23	448.9	-112.18	232.51	407.96	-77.16	231.61	329.21	-139.58	278.76	346.1	-155.18	255.97	311.48	-174.59	262.41	373.24	-123.63	112.93	422.51	-88.021	87.299	321.13	-55.515	54.899	384.34	145.7	594.37	137.38	237.44	535.25	153.77	163.54	509.06	165.21	211.02	622.94	126.39	236.18	453.38	169.43	224.91	458.9	306.84	155.95	280.04	176.04	225.15	195.01	199.24	153.86	208.23	195.56	220.54	269.02	179.36	176.61	98.262	214.96	188.72	96.292	296.89	118.16	66.09	249.93	126.36	40.758	284.46	123.91	37.765	222.47	290.74	35.597	193.96	311.5	45.7	303.81	371.47	62.044	257.44	60.689	1392.8	283.54	-14.587	1139.9	296.32
